<svg width="25" height="14" viewBox="0 0 25 14" fill="none" xmlns="http://www.w3.org/2000/svg">
<path fill-rule="evenodd" clip-rule="evenodd" d="M0 1.99999C0 0.895385 0.932762 0 2.08333 0H19.7918C20.9424 0 21.8751 0.895449 21.8751 1.99999V3.00011H23.9585C24.5338 3.00011 25 3.4477 25 3.99998V10C25 10.5523 24.5338 11.0001 23.9585 11.0001H21.8751V12C21.8751 13.1046 20.9424 14 19.7918 14H2.08333C0.932696 14 0 13.1046 0 12V1.99999ZM21.8747 9.00008H22.9163V5.00004H21.8747V9.00008ZM19.7914 1.99999H2.08294V11.9999H19.7914V1.99999ZM3.12434 3.99998C3.12434 3.44769 3.59084 3.00011 4.16614 3.00011H7.29101C7.68565 3.00011 8.04619 3.21398 8.22271 3.5529L11.3478 9.55293C11.5091 9.86282 11.4921 10.231 11.3021 10.5257C11.1124 10.8205 10.7772 11.0001 10.4161 11.0001H4.16604C3.59074 11.0001 3.12424 10.5523 3.12424 10L3.12434 3.99998ZM5.20767 5.0001V9.00015H8.73057L6.64724 5.0001H5.20767Z" fill="#5B47A0"/>
<path d="M5.20767 5.0001V9.00015H8.73057L6.64724 5.0001H5.20767Z" fill="#5B47A0"/>
</svg>
