<svg width="34" height="28" viewBox="0 0 34 28" fill="none" xmlns="http://www.w3.org/2000/svg">
<path fill-rule="evenodd" clip-rule="evenodd" d="M2 11.8337V21.167C2 23.0338 2 23.966 2.36331 24.679C2.68289 25.3062 3.19245 25.8175 3.81966 26.137C4.532 26.5 5.46499 26.5 7.32818 26.5H26.6718C28.535 26.5 29.4667 26.5 30.179 26.137C30.8062 25.8175 31.3175 25.3062 31.637 24.679C32 23.9666 32 23.035 32 21.1718V11.8282C32 9.96499 32 9.032 31.637 8.31966C31.3175 7.69245 30.8062 7.18289 30.179 6.86331C29.466 6.5 28.5338 6.5 26.667 6.5H21.1847C21.3619 6.49992 21.462 6.49901 21.5404 6.49023C22.5197 6.38059 23.1903 5.44861 22.9846 4.48489C22.9652 4.39393 22.9267 4.27832 22.8496 4.0472C22.7641 3.79057 22.7211 3.66239 22.6738 3.54915C22.19 2.38981 21.0956 1.60138 19.8428 1.50902C19.7204 1.5 19.5848 1.5 19.3143 1.5H14.6855C14.415 1.5 14.2806 1.5 14.1582 1.50902C12.9054 1.60138 11.8098 2.38981 11.326 3.54915C11.2787 3.66239 11.2359 3.79071 11.1504 4.04736L11.1472 4.05686C11.0723 4.28157 11.0344 4.39505 11.0153 4.48473C10.8096 5.44846 11.4813 6.38059 12.4606 6.49023C12.539 6.49901 12.6381 6.49992 12.815 6.5H7.33366C5.46682 6.5 4.5327 6.5 3.81966 6.86331C3.19245 7.18289 2.68289 7.69245 2.36331 8.31966C2 9.0327 2 9.96682 2 11.8337ZM12 16.5C12 19.2614 14.2386 21.5 17 21.5C19.7614 21.5 22 19.2614 22 16.5C22 13.7386 19.7614 11.5 17 11.5C14.2386 11.5 12 13.7386 12 16.5Z" fill="#5B47A0"/>
<path d="M12.815 6.5H7.33366C5.46682 6.5 4.5327 6.5 3.81966 6.86331C3.19245 7.18289 2.68289 7.69245 2.36331 8.31966C2 9.0327 2 9.96682 2 11.8337V21.167C2 23.0338 2 23.9659 2.36331 24.679C2.68289 25.3062 3.19245 25.8175 3.81966 26.137C4.532 26.5 5.46499 26.5 7.32818 26.5H26.6718C28.535 26.5 29.4667 26.5 30.179 26.137C30.8062 25.8175 31.3175 25.3062 31.637 24.679C32 23.9666 32 23.035 32 21.1718V11.8282C32 9.96499 32 9.032 31.637 8.31966C31.3175 7.69245 30.8062 7.18289 30.179 6.86331C29.466 6.5 28.5338 6.5 26.667 6.5H21.1847M12.815 6.5H12.918M12.815 6.5C12.8358 6.50001 12.8578 6.50001 12.8809 6.5L12.918 6.5M12.815 6.5C12.6381 6.49992 12.539 6.49901 12.4606 6.49023C11.4813 6.38059 10.8096 5.44846 11.0153 4.48473C11.0344 4.39505 11.0723 4.28157 11.1472 4.05686L11.1504 4.04736C11.2359 3.79071 11.2787 3.66239 11.326 3.54915C11.8098 2.38981 12.9054 1.60138 14.1582 1.50902C14.2806 1.5 14.415 1.5 14.6855 1.5H19.3143C19.5848 1.5 19.7204 1.5 19.8428 1.50902C21.0956 1.60138 22.19 2.38981 22.6738 3.54915C22.7211 3.66239 22.7641 3.79057 22.8496 4.0472C22.9267 4.27832 22.9652 4.39393 22.9846 4.48489C23.1903 5.44861 22.5197 6.38059 21.5404 6.49023C21.462 6.49901 21.3619 6.49992 21.1847 6.5M12.918 6.5H21.0816M21.0816 6.5H21.1847M21.0816 6.5L21.1186 6.5C21.1418 6.50001 21.1638 6.50001 21.1847 6.5M17 21.5C14.2386 21.5 12 19.2614 12 16.5C12 13.7386 14.2386 11.5 17 11.5C19.7614 11.5 22 13.7386 22 16.5C22 19.2614 19.7614 21.5 17 21.5Z" stroke="#5B47A0" stroke-width="3" stroke-linecap="round" stroke-linejoin="round"/>
</svg>
