<svg width="26" height="30" viewBox="0 0 26 30" fill="none" xmlns="http://www.w3.org/2000/svg">
<path d="M1.6211 18.8787L2.20537 18.2944C2.39389 18.1059 2.50003 17.8503 2.50003 17.5836V12C2.50003 6.20102 7.20113 1.50001 13.0002 1.5C18.7993 1.49999 23.5004 6.201 23.5004 12V17.5836C23.5004 17.8502 23.6063 18.1059 23.7948 18.2944L24.3791 18.8787C24.5575 19.0572 24.648 19.1477 24.7192 19.2468C24.854 19.4345 24.9425 19.6507 24.9799 19.8787C24.9997 19.9993 25 20.1258 25 20.3789C25 20.9572 25 21.2464 24.9213 21.4797C24.7716 21.9235 24.4243 22.2719 23.9805 22.4216C23.7482 22.5 23.4599 22.5 22.8861 22.5H17.5003V24C17.5003 26.4853 15.4855 28.5 13.0002 28.5C10.5149 28.5 8.50013 26.4853 8.50013 24V22.5H3.11437C2.54055 22.5 2.25336 22.5 2.02101 22.4216C1.57721 22.2719 1.22838 21.9234 1.07868 21.4796C1 21.2464 1 20.9573 1 20.3789C1 20.1259 1 19.9993 1.0198 19.8787C1.05722 19.6507 1.14649 19.4346 1.28125 19.2469C1.35257 19.1476 1.44214 19.0576 1.6211 18.8787Z" fill="#5B47A0"/>
<path d="M17.5003 22.5V24C17.5003 26.4853 15.4855 28.5 13.0002 28.5C10.5149 28.5 8.50013 26.4853 8.50013 24V22.5M17.5003 22.5H8.50013M17.5003 22.5H22.8861C23.4599 22.5 23.7482 22.5 23.9805 22.4216C24.4243 22.2719 24.7716 21.9235 24.9213 21.4797C25 21.2464 25 20.9572 25 20.3789C25 20.1258 24.9997 19.9993 24.9799 19.8787C24.9425 19.6507 24.854 19.4345 24.7192 19.2468C24.648 19.1477 24.5575 19.0572 24.3791 18.8787L23.7948 18.2944C23.6063 18.1059 23.5004 17.8502 23.5004 17.5836V12C23.5004 6.201 18.7993 1.49999 13.0002 1.5C7.20113 1.50001 2.50003 6.20102 2.50003 12V17.5836C2.50003 17.8503 2.39389 18.1059 2.20537 18.2944L1.6211 18.8787C1.44214 19.0576 1.35257 19.1476 1.28125 19.2469C1.14649 19.4346 1.05722 19.6507 1.0198 19.8787C1 19.9993 1 20.1259 1 20.3789C1 20.9573 1 21.2464 1.07868 21.4796C1.22838 21.9234 1.57721 22.2719 2.02101 22.4216C2.25336 22.5 2.54055 22.5 3.11437 22.5H8.50013" stroke="#F9F9FB" stroke-width="2" stroke-linecap="round" stroke-linejoin="round"/>
</svg>
