<svg width="32" height="34" viewBox="0 0 32 34" fill="none" xmlns="http://www.w3.org/2000/svg">
<path d="M2.5 17.3337V26.667C2.5 28.5338 2.5 29.4668 2.86785 30.1798C3.19143 30.807 3.70736 31.3175 4.34241 31.637C5.06365 32 6.00835 32 7.89483 32H24.1052C25.9917 32 26.935 32 27.6562 31.637C28.2913 31.3175 28.8089 30.807 29.1325 30.1798C29.5 29.4675 29.5 28.5358 29.5 26.6726V17.3282C29.5 15.465 29.5 14.532 29.1325 13.8197C28.8089 13.1925 28.2913 12.6829 27.6562 12.3633C26.9343 12 25.9905 12 24.1003 12H20.6726H11.3264H7.90033C6.01015 12 5.06436 12 4.34241 12.3633C3.70736 12.6829 3.19143 13.1925 2.86785 13.8197C2.5 14.5327 2.5 15.4668 2.5 17.3337Z" fill="#5B47A0"/>
<path d="M11.3264 12H7.90033C6.01015 12 5.06436 12 4.34241 12.3633C3.70736 12.6829 3.19143 13.1925 2.86785 13.8197C2.5 14.5327 2.5 15.4668 2.5 17.3337V26.667C2.5 28.5338 2.5 29.4668 2.86785 30.1798C3.19143 30.807 3.70736 31.3175 4.34241 31.637C5.06365 32 6.00835 32 7.89483 32H24.1052C25.9917 32 26.935 32 27.6562 31.637C28.2913 31.3175 28.8089 30.807 29.1325 30.1798C29.5 29.4675 29.5 28.5358 29.5 26.6726V17.3282C29.5 15.465 29.5 14.532 29.1325 13.8197C28.8089 13.1925 28.2913 12.6829 27.6562 12.3633C26.9343 12 25.9905 12 24.1003 12H20.6726M11.3264 12H20.6726M11.3264 12C11.1113 12 9.25 11.8278 9.25 11.6154V7C9.25 4.23858 11.7812 2 16 2C20.2188 2 22.75 4.23858 22.75 7V11.6154C22.75 11.8278 20.8876 12 20.6726 12" stroke="#5B47A0" stroke-width="4" stroke-linecap="round" stroke-linejoin="round"/>
</svg>
