<svg width="18" height="15" viewBox="0 0 18 15" fill="none" xmlns="http://www.w3.org/2000/svg">
<path fill-rule="evenodd" clip-rule="evenodd" d="M1.92932 6.2C1.91824 6.24995 1.90942 6.30038 1.90286 6.35107C1.88889 6.4591 1.88889 6.56892 1.88889 6.78864V11.4V12.2667C1.88889 13.224 2.68483 14 3.66667 14C4.64851 14 5.44444 13.224 5.44444 12.2667V11.4L12.5556 11.4001V12.2667C12.5556 13.224 13.3515 14 14.3333 14C15.3152 14 16.1111 13.2239 16.1111 12.2666V11.4001V6.78469C16.1111 6.56762 16.1111 6.45844 16.0972 6.35107C16.0907 6.30038 16.0818 6.24995 16.0707 6.2H1.92932Z" fill="#5B47A0"/>
<path d="M1 6.2H1.92932M1.92932 6.2H16.0707M1.92932 6.2C1.93921 6.1554 1.95091 6.11118 1.96441 6.0675C1.99664 5.96325 2.04216 5.863 2.13368 5.66221L3.50813 2.64701C3.77988 2.05086 3.91598 1.75262 4.13075 1.53405C4.3206 1.34085 4.55346 1.19327 4.81163 1.10259C5.10371 1 5.43854 1 6.10764 1H11.8921C12.5612 1 12.8963 1 13.1884 1.10259C13.4466 1.19327 13.6791 1.34085 13.8689 1.53405C14.0836 1.75247 14.2194 2.05047 14.4908 2.6458L15.8708 5.67318C15.959 5.86668 16.0039 5.96516 16.0355 6.0675C16.049 6.11118 16.0608 6.1554 16.0707 6.2M1.92932 6.2C1.91824 6.24995 1.90942 6.30038 1.90286 6.35107C1.88889 6.4591 1.88889 6.56892 1.88889 6.78864V11.4M16.0707 6.2H17M16.0707 6.2C16.0818 6.24995 16.0907 6.30038 16.0972 6.35107C16.1111 6.45844 16.1111 6.56762 16.1111 6.78469V11.4001M16.1111 11.4001L12.5556 11.4001M16.1111 11.4001V12.2666C16.1111 13.2239 15.3152 14 14.3333 14C13.3515 14 12.5556 13.224 12.5556 12.2667V11.4001M12.5556 11.4001L5.44444 11.4M5.44444 11.4H1.88889M5.44444 11.4V12.2667C5.44444 13.224 4.64851 14 3.66667 14C2.68483 14 1.88889 13.224 1.88889 12.2667V11.4" stroke="#5B47A0" stroke-width="1.5" stroke-linecap="round" stroke-linejoin="round"/>
</svg>
