<svg width="27" height="26" viewBox="0 0 27 26" fill="none" xmlns="http://www.w3.org/2000/svg">
<path fill-rule="evenodd" clip-rule="evenodd" d="M24.2822 8.65016L24.7768 8.92028L24.7791 8.92141C25.5838 9.36091 25.9865 9.58082 26.28 9.89338C26.54 10.1702 26.7371 10.4986 26.858 10.8559C26.9945 11.2598 26.9957 11.7123 26.9978 12.6181L26.9995 13.3794C27.0016 14.2807 27.0027 14.734 26.8672 15.1383C26.7466 15.498 26.5494 15.8279 26.288 16.1064C25.9925 16.4211 25.5856 16.6426 24.7731 17.0846L24.2848 17.3503L24.2823 17.3514C24.2081 17.3918 24.1708 17.4121 24.1345 17.4333C23.7634 17.6506 23.4508 17.9523 23.2229 18.3127C23.2004 18.3484 23.1779 18.3852 23.1344 18.459C23.0911 18.5326 23.0692 18.5699 23.0491 18.6068C22.845 18.9804 22.7353 19.3972 22.7289 19.8212C22.7283 19.8631 22.7284 19.9055 22.7299 19.9908L22.7399 20.5735C22.7552 21.467 22.7629 21.917 22.6349 22.3208C22.5209 22.6806 22.3301 23.0122 22.0752 23.2939C21.7878 23.6114 21.3895 23.8384 20.595 24.291L19.9265 24.672C19.1259 25.1282 18.7245 25.3569 18.2985 25.4442C17.9211 25.5216 17.5313 25.5183 17.1551 25.4354C16.7299 25.3417 16.3322 25.1075 15.5363 24.6384L15.0283 24.339C14.97 24.3046 14.9368 24.285 14.9037 24.2669C14.5273 24.0609 14.1056 23.9465 13.6749 23.9329C13.6315 23.9316 13.5875 23.9316 13.4992 23.9316C13.4111 23.9316 13.367 23.9316 13.3237 23.9329C12.8939 23.9465 12.4748 24.0605 12.099 24.2656C12.0611 24.2863 12.0228 24.3086 11.9472 24.353L11.4694 24.6339C10.6767 25.0999 10.2799 25.3332 9.85638 25.4265C9.48169 25.5091 9.0934 25.5121 8.71735 25.4357C8.29228 25.3493 7.8921 25.123 7.09143 24.67L6.42467 24.2928C5.62176 23.8386 5.22011 23.6113 4.93039 23.2926C4.67408 23.0106 4.48234 22.6783 4.36762 22.3176C4.23795 21.9098 4.24476 21.4544 4.2604 20.5447L4.26969 20.0044C4.27127 19.913 4.27193 19.8675 4.27115 19.8225C4.26392 19.4062 4.15787 18.9971 3.95978 18.6289C3.94276 18.5972 3.92431 18.5657 3.8942 18.5142L3.86843 18.47C3.82158 18.3897 3.79815 18.3495 3.77374 18.3108C3.54781 17.9524 3.23798 17.6518 2.87022 17.4344C2.83743 17.415 2.80346 17.3965 2.74627 17.3653L2.70669 17.3437L2.22274 17.0794C1.41647 16.6391 1.01439 16.4192 0.720549 16.1064C0.460588 15.8296 0.264541 15.5012 0.143714 15.1439C0.00713968 14.74 0.00426511 14.2874 0.00216941 13.3816L0.000445025 12.6363C-0.00166477 11.7243 -0.00177944 11.2684 0.134491 10.8617C0.255041 10.502 0.45253 10.1717 0.713955 9.89318C1.00947 9.57839 1.41559 9.35719 2.22802 8.91518L2.71632 8.64952L2.75411 8.62898C2.8062 8.60069 2.83769 8.58359 2.86774 8.566C3.23887 8.34874 3.55115 8.04731 3.77901 7.68687C3.79633 7.65948 3.81277 7.63145 3.83916 7.58643L3.86606 7.54062C3.90949 7.46681 3.93124 7.42985 3.95142 7.3929C4.1555 7.01923 4.26702 6.60271 4.27342 6.17876C4.27378 6.15449 4.27309 6.13006 4.27215 6.09726C4.27147 6.0734 4.27067 6.04509 4.27005 6.0092L4.2604 5.44614C4.24487 4.53959 4.238 4.08606 4.36691 3.67937C4.48096 3.31957 4.67151 2.98781 4.92643 2.70611C5.21371 2.38867 5.61162 2.16194 6.40551 1.70958L6.4128 1.7052L7.0714 1.32993L7.07497 1.32837C7.87607 0.871899 8.27663 0.643662 8.70278 0.556274C9.08021 0.478879 9.46961 0.481173 9.84583 0.564043C10.2711 0.657712 10.6696 0.892594 11.4654 1.36165L11.9463 1.64509L11.9865 1.66884C12.0366 1.69843 12.067 1.71634 12.0975 1.73304C12.4739 1.93903 12.8943 2.05307 13.325 2.06668C13.3682 2.06804 13.4142 2.06804 13.5017 2.06804C13.5898 2.06804 13.6339 2.06804 13.6772 2.06668C14.107 2.05313 14.5266 1.9397 14.9024 1.73456C14.9403 1.71389 14.9785 1.6915 15.0541 1.64708L15.5319 1.36618L15.5364 1.36407C16.3268 0.899419 16.7223 0.666958 17.1452 0.573754C17.5198 0.491174 17.9079 0.487633 18.284 0.564043C18.709 0.650413 19.1095 0.876969 19.9101 1.32993L20.577 1.70722C21.3799 2.16144 21.7809 2.38884 22.0707 2.70759C22.327 2.98957 22.5189 3.32185 22.6336 3.68261C22.7628 4.08875 22.755 4.5413 22.7396 5.4436L22.7299 6.00746C22.7284 6.09385 22.7283 6.13731 22.7289 6.17984C22.7355 6.60292 22.8456 7.0186 23.0491 7.3916C23.0695 7.42906 23.0918 7.4669 23.1357 7.54158L23.1671 7.59511C23.1915 7.63681 23.2074 7.664 23.224 7.69026C23.4509 8.04879 23.7617 8.34846 24.1305 8.56535C24.1676 8.58717 24.2054 8.60822 24.2822 8.65016ZM8.09832 13.0001C8.09832 15.9292 10.5169 18.3037 13.5004 18.3037C16.4839 18.3037 18.9025 15.9292 18.9025 13.0001C18.9025 10.071 16.4839 7.69653 13.5004 7.69653C10.5169 7.69653 8.09832 10.071 8.09832 13.0001Z" fill="#5B47A0"/>
</svg>
