<svg width="28" height="28" viewBox="0 0 28 28" fill="none" xmlns="http://www.w3.org/2000/svg">
<path d="M26.5 21.9104V13.4235C26.5 12.6061 26.4993 12.1972 26.3978 11.8168C26.3078 11.4798 26.1601 11.1608 25.9603 10.8725C25.7347 10.5473 25.4212 10.2776 24.7928 9.7393L17.2928 3.31443C16.1263 2.31508 15.543 1.81566 14.8865 1.6256C14.3081 1.45813 13.6916 1.45813 13.1132 1.6256C12.4572 1.81551 11.8748 2.31446 10.7099 3.3123L3.20746 9.7393C2.57913 10.2776 2.26569 10.5473 2.04016 10.8725C1.8403 11.1608 1.69148 11.4798 1.60152 11.8168C1.5 12.1972 1.5 12.6061 1.5 13.4235V21.9104C1.5 23.3359 1.5 24.0484 1.73788 24.6106C2.05505 25.3603 2.663 25.9566 3.42871 26.2671C4.003 26.5 4.73103 26.5 6.1871 26.5C7.64316 26.5 8.372 26.5 8.94629 26.2671C9.712 25.9566 10.3198 25.3604 10.637 24.6108C10.8748 24.0485 10.875 23.3357 10.875 21.9102V20.3805C10.875 18.6908 12.2741 17.321 14 17.321C15.7259 17.321 17.125 18.6908 17.125 20.3805V21.9102C17.125 23.3357 17.125 24.0485 17.3629 24.6108C17.68 25.3604 18.288 25.9566 19.0537 26.2671C19.628 26.5 20.356 26.5 21.8121 26.5C23.2682 26.5 23.997 26.5 24.5713 26.2671C25.337 25.9566 25.9448 25.3603 26.262 24.6106C26.4998 24.0484 26.5 23.3359 26.5 21.9104Z" fill="#2DD6E1" stroke="#2DD6E1" stroke-width="1.5" stroke-linecap="round" stroke-linejoin="round"/>
</svg>
