<svg width="26" height="26" viewBox="0 0 26 26" fill="none" xmlns="http://www.w3.org/2000/svg">
<path d="M25.5 20.9104V12.4235C25.5 11.6061 25.4993 11.1972 25.3978 10.8168C25.3078 10.4798 25.1601 10.1608 24.9603 9.87255C24.7347 9.54728 24.4212 9.27755 23.7928 8.7393L16.2928 2.31443C15.1263 1.31508 14.543 0.815658 13.8865 0.625601C13.3081 0.458133 12.6916 0.458133 12.1132 0.625601C11.4572 0.815515 10.8748 1.31446 9.70994 2.3123L2.20746 8.7393C1.57913 9.27756 1.26569 9.54728 1.04016 9.87255C0.8403 10.1608 0.691482 10.4798 0.601518 10.8168C0.5 11.1972 0.5 11.6061 0.5 12.4235V20.9104C0.5 22.3359 0.5 23.0484 0.737876 23.6106C1.05505 24.3603 1.663 24.9566 2.42871 25.2671C3.003 25.5 3.73103 25.5 5.1871 25.5C6.64316 25.5 7.372 25.5 7.94629 25.2671C8.712 24.9566 9.31979 24.3604 9.63696 23.6107C9.87484 23.0485 9.875 22.3357 9.875 20.9102V19.3805C9.875 17.6908 11.2741 16.321 13 16.321C14.7259 16.321 16.125 17.6908 16.125 19.3805V20.9102C16.125 22.3357 16.125 23.0485 16.3629 23.6107C16.68 24.3604 17.288 24.9566 18.0537 25.2671C18.628 25.5 19.356 25.5 20.8121 25.5C22.2682 25.5 22.997 25.5 23.5713 25.2671C24.337 24.9566 24.9448 24.3603 25.262 23.6106C25.4998 23.0484 25.5 22.3359 25.5 20.9104Z" fill="#5B47A0" stroke="#5B47A0" stroke-linecap="round" stroke-linejoin="round"/>
</svg>
