<svg width="21" height="15" viewBox="0 0 21 15" fill="none" xmlns="http://www.w3.org/2000/svg">
<path d="M1.93397 9.27881C3.7134 11.0478 6.8167 13.4999 10.3474 13.4999C13.878 13.4999 16.9807 11.0478 18.7601 9.27881C19.2294 8.81226 19.4649 8.57819 19.6143 8.12012C19.7209 7.79328 19.7209 7.20674 19.6143 6.8799C19.4649 6.42181 19.2295 6.1877 18.7601 5.72111C16.9807 3.95208 13.878 1.5 10.3474 1.5C6.8167 1.5 3.7134 3.95208 1.93397 5.72111C1.46431 6.18802 1.22945 6.42165 1.07996 6.8799C0.973345 7.20673 0.973345 7.79328 1.07996 8.12012C1.22945 8.57837 1.4643 8.81189 1.93397 9.27881Z" stroke="#5B47A0" stroke-width="1.5" stroke-linecap="round" stroke-linejoin="round"/>
<path d="M8.34717 7.5C8.34717 8.60457 9.2426 9.5 10.3472 9.5C11.4517 9.5 12.3472 8.60457 12.3472 7.5C12.3472 6.39543 11.4517 5.5 10.3472 5.5C9.2426 5.5 8.34717 6.39543 8.34717 7.5Z" stroke="#5B47A0" stroke-width="1.5" stroke-linecap="round" stroke-linejoin="round"/>
</svg>
