<svg width="34" height="26" viewBox="0 0 34 26" fill="none" xmlns="http://www.w3.org/2000/svg">
<path d="M2 13.0361C2 11.895 2 11.3244 2.15142 10.8633C2.44939 9.95592 3.15696 9.24411 4.05895 8.94435C4.5173 8.79202 5.08445 8.79202 6.21875 8.79202H8.35374C8.77478 8.79202 8.9853 8.79202 9.17984 8.73842C9.3522 8.69093 9.51473 8.61283 9.65978 8.50782C9.8235 8.38929 9.95582 8.22457 10.2204 7.89513L12.7333 4.76683C14.0432 3.13606 14.6982 2.32068 15.272 2.23192C15.7688 2.15508 16.2708 2.33362 16.6091 2.70747C17 3.13933 17 4.18766 17 6.28433V19.7878C17 21.8845 17 22.9328 16.6091 23.3647C16.2708 23.7385 15.7688 23.917 15.272 23.8402C14.6982 23.7514 14.0432 22.9361 12.7333 21.3053L10.2204 18.177C9.95581 17.8475 9.8235 17.6828 9.65978 17.5643C9.51473 17.4593 9.3522 17.3812 9.17984 17.3337C8.9853 17.2801 8.77478 17.2801 8.35374 17.2801H6.21875C5.08445 17.2801 4.5173 17.2801 4.05895 17.1278C3.15696 16.828 2.44939 16.1162 2.15142 15.2088C2 14.7477 2 14.1772 2 13.0361Z" fill="#5B47A0"/>
<path d="M27.23 2C28.7286 3.4059 29.9251 5.1058 30.7454 6.99483C31.5658 8.88386 31.9928 10.922 31.9999 12.9834C32.0071 15.0448 31.5943 17.0859 30.787 18.9806C29.9798 20.8753 28.7952 22.5836 27.3063 24M23.138 6.41442C24.0372 7.25796 24.755 8.2779 25.2473 9.41132C25.7395 10.5447 25.9957 11.7676 25.9999 13.0045C26.0042 14.2413 25.7566 15.4659 25.2722 16.6028C24.7879 17.7396 24.0771 18.7646 23.1838 19.6144M10.2204 18.177L12.7333 21.3053C14.0432 22.9361 14.6982 23.7514 15.272 23.8402C15.7688 23.917 16.2708 23.7385 16.6091 23.3647C17 22.9328 17 21.8845 17 19.7878V6.28433C17 4.18766 17 3.13933 16.6091 2.70747C16.2708 2.33362 15.7688 2.15508 15.272 2.23192C14.6982 2.32068 14.0432 3.13606 12.7333 4.76683L10.2204 7.89513C9.95582 8.22457 9.8235 8.38929 9.65978 8.50782C9.51473 8.61283 9.3522 8.69093 9.17985 8.73842C8.9853 8.79202 8.77478 8.79202 8.35374 8.79202H6.21875C5.08445 8.79202 4.5173 8.79202 4.05895 8.94435C3.15696 9.24411 2.44939 9.95592 2.15142 10.8633C2 11.3244 2 11.895 2 13.0361C2 14.1772 2 14.7477 2.15142 15.2088C2.44939 16.1162 3.15696 16.828 4.05895 17.1278C4.5173 17.2801 5.08445 17.2801 6.21875 17.2801H8.35374C8.77478 17.2801 8.9853 17.2801 9.17985 17.3337C9.3522 17.3812 9.51473 17.4593 9.65978 17.5643C9.8235 17.6828 9.95581 17.8475 10.2204 18.177Z" stroke="#5B47A0" stroke-width="3" stroke-linecap="round" stroke-linejoin="round"/>
</svg>
