<svg width="17" height="22" viewBox="0 0 17 22" fill="none" xmlns="http://www.w3.org/2000/svg">
<path fill-rule="evenodd" clip-rule="evenodd" d="M7.5606 20.5255C5.54768 18.7919 1 14.2701 1 8.80206C1 6.73276 1.79018 4.74859 3.19671 3.28537C4.60324 1.82215 6.51099 1 8.50013 1C10.4893 1 12.3968 1.82202 13.8033 3.28524C15.2099 4.74846 16 6.73326 16 8.80256C16 14.2706 11.4526 18.792 9.43964 20.5257C9.15047 20.7747 9.00573 20.8991 8.7904 20.9628C8.62304 21.0124 8.37673 21.0124 8.20937 20.9628C7.99445 20.8992 7.84868 20.7736 7.5606 20.5255ZM6.35717 7.762C6.35717 9.00686 7.31657 10.016 8.50004 10.016C9.68352 10.016 10.6429 9.00686 10.6429 7.762C10.6429 6.51715 9.68352 5.508 8.50004 5.508C7.31657 5.508 6.35717 6.51715 6.35717 7.762Z" fill="#5B47A0" stroke="#5B47A0" stroke-width="1.5" stroke-linecap="round" stroke-linejoin="round"/>
</svg>
