<svg width="29" height="23" viewBox="0 0 29 23" fill="none" xmlns="http://www.w3.org/2000/svg">
<path d="M13.1117 20.0714C13.1117 20.8604 13.7515 21.5 14.5406 21.5C15.3298 21.5 15.9696 20.8604 15.9696 20.0714C15.9696 19.2825 15.3298 18.6429 14.5406 18.6429C13.7515 18.6429 13.1117 19.2825 13.1117 20.0714Z" fill="#5B47A0"/>
<path d="M9.3148 15.1997C9.98044 14.4861 10.7853 13.9164 11.6797 13.5257C12.5741 13.1351 13.5398 12.932 14.5158 12.9286C15.4918 12.9252 16.458 13.1219 17.3551 13.5063C18.2522 13.8907 19.0613 14.4546 19.7319 15.1636M6.18068 10.8484C7.24571 9.7066 8.53346 8.79504 9.96449 8.16999C11.3955 7.54494 12.9392 7.21981 14.5008 7.21436C16.0625 7.20891 17.6079 7.52355 19.0433 8.13859C20.4786 8.75364 21.7734 9.65627 22.8464 10.7906M2 6.9519C3.59755 5.23915 5.52918 3.87182 7.67571 2.93425C9.82225 1.99668 12.1371 1.50828 14.4795 1.5001C16.822 1.49193 19.1429 1.96389 21.296 2.88645C23.449 3.80902 25.3905 5.16367 27 6.86522M14.5406 21.5C13.7515 21.5 13.1117 20.8604 13.1117 20.0714C13.1117 19.2825 13.7515 18.6429 14.5406 18.6429C15.3298 18.6429 15.9696 19.2825 15.9696 20.0714C15.9696 20.8604 15.3298 21.5 14.5406 21.5Z" stroke="#5B47A0" stroke-width="3" stroke-linecap="round" stroke-linejoin="round"/>
</svg>
